<?xml version="1.0" encoding="UTF-8" ?>
<!DOCTYPE svg PUBLIC "-//W3C//DTD SVG 1.1//EN" "http://www.w3.org/Graphics/SVG/1.1/DTD/svg11.dtd">
<svg width="1800pt" height="600pt" viewBox="0 0 1800 600" version="1.1" xmlns="http://www.w3.org/2000/svg">
<path fill="#858688" opacity="1.00" d=" M 303.24 77.01 C 306.44 76.32 309.75 76.66 313.00 76.61 C 329.00 76.65 345.01 76.66 361.01 76.59 C 364.59 76.64 368.78 76.78 371.33 79.70 C 373.24 81.61 373.07 84.48 373.16 86.97 C 373.25 220.98 373.18 354.99 373.05 489.00 C 372.89 496.21 374.48 504.10 370.69 510.67 C 368.84 514.09 364.63 514.12 361.26 514.44 C 352.54 515.08 343.76 516.18 335.03 515.17 C 332.05 514.61 328.49 514.17 326.60 511.49 C 323.83 507.52 322.12 502.80 318.70 499.29 C 317.65 497.86 315.40 497.95 314.25 499.20 C 311.20 501.83 308.56 504.99 305.03 507.03 C 293.65 513.88 280.72 517.90 267.62 519.82 C 255.56 522.04 243.25 522.56 231.00 522.37 C 213.02 522.79 194.82 520.39 177.91 514.12 C 165.35 508.97 153.10 502.26 143.68 492.31 C 135.52 484.57 128.56 475.52 123.53 465.44 C 109.74 439.81 104.82 410.45 103.27 381.69 C 102.40 373.41 103.29 365.06 102.37 356.78 C 101.87 352.18 102.36 347.58 102.70 343.00 C 102.92 327.26 104.55 311.55 107.19 296.03 C 110.46 279.23 115.14 262.49 123.36 247.38 C 129.48 236.31 138.22 227.01 147.52 218.56 C 162.34 206.31 180.44 198.43 199.13 194.30 C 218.10 190.14 237.61 188.71 257.00 189.16 C 271.09 188.64 285.08 190.69 299.13 191.15 C 299.62 186.12 299.28 181.05 299.35 176.00 C 299.40 147.34 299.25 118.68 299.42 90.02 C 300.09 85.66 299.30 79.97 303.24 77.01 M 246.49 250.69 C 230.91 252.37 214.64 254.55 201.13 263.10 C 191.21 269.33 186.81 280.93 183.65 291.66 C 176.32 319.13 177.36 347.82 177.53 375.98 C 177.50 391.54 178.67 407.23 182.91 422.26 C 186.29 433.52 191.72 444.50 200.36 452.66 C 207.09 458.51 215.99 460.99 224.57 462.65 C 248.49 466.89 272.98 465.30 296.97 462.54 C 298.51 462.26 301.05 462.01 301.09 459.97 C 302.41 438.68 302.22 417.32 302.46 396.00 C 302.47 366.33 302.47 336.66 302.08 306.99 C 301.33 289.68 302.25 272.29 300.57 255.03 C 300.74 253.69 299.88 252.72 298.61 252.47 C 290.93 250.39 282.88 250.54 275.00 249.99 C 265.49 249.35 255.98 250.20 246.49 250.69 Z" />
<path fill="#858688" opacity="1.00" d=" M 1579.62 125.72 C 1592.17 123.36 1604.86 120.70 1617.69 121.20 C 1622.41 121.53 1629.21 123.03 1629.28 128.96 C 1629.54 148.90 1629.20 168.86 1629.37 188.81 C 1647.52 189.72 1665.77 188.76 1683.95 189.25 C 1689.02 189.61 1693.32 194.00 1693.75 199.04 C 1694.97 210.32 1694.72 221.74 1693.84 233.04 C 1693.67 239.73 1687.08 244.45 1680.79 244.67 C 1663.66 245.33 1646.46 244.24 1629.36 245.18 C 1629.24 252.46 1629.49 259.75 1628.72 267.01 C 1628.59 325.00 1628.72 383.00 1628.63 441.00 C 1628.79 447.64 1630.15 455.02 1635.37 459.64 C 1638.94 463.07 1644.14 464.04 1648.94 463.61 C 1660.32 462.58 1671.58 460.22 1683.02 459.76 C 1686.88 459.81 1691.86 460.08 1694.07 463.80 C 1695.34 468.08 1695.35 472.62 1696.02 477.03 C 1697.23 484.86 1696.84 493.25 1693.42 500.50 C 1690.16 507.03 1682.66 509.11 1676.31 511.34 C 1654.89 518.26 1631.85 522.45 1609.43 518.40 C 1593.39 515.52 1577.93 507.06 1568.46 493.57 C 1563.02 486.00 1559.42 477.14 1557.95 467.94 C 1555.18 452.80 1555.20 437.29 1556.34 421.99 C 1555.82 411.96 1557.60 402.02 1557.16 392.00 C 1556.89 379.01 1557.81 365.98 1556.41 353.04 C 1556.18 339.37 1556.51 325.68 1556.25 312.01 C 1555.01 299.14 1556.09 286.19 1555.44 273.30 C 1554.47 264.32 1555.30 255.27 1554.63 246.29 C 1545.50 244.91 1536.19 246.01 1527.00 245.65 C 1517.62 246.18 1508.34 244.50 1498.97 244.84 C 1492.92 245.15 1486.93 240.27 1486.83 234.05 C 1486.37 223.71 1486.81 213.34 1486.63 202.99 C 1486.45 198.82 1487.39 193.66 1491.68 191.81 C 1497.18 189.54 1503.26 191.07 1509.01 191.26 C 1516.34 191.43 1523.69 191.54 1531.01 190.84 C 1539.29 190.35 1547.59 190.95 1555.87 190.62 C 1557.24 178.14 1555.41 165.46 1556.90 152.96 C 1557.32 146.23 1557.02 138.36 1562.31 133.31 C 1566.69 128.34 1573.42 126.99 1579.62 125.72 Z" />
<path fill="#858688" opacity="1.00" d=" M 1290.91 195.03 C 1311.95 188.73 1334.11 186.72 1355.99 187.88 C 1374.04 189.20 1392.26 192.40 1408.68 200.32 C 1427.61 209.00 1443.98 223.21 1455.07 240.87 C 1464.32 254.74 1470.11 270.60 1474.29 286.66 C 1479.63 308.66 1481.29 331.42 1480.84 354.00 C 1480.55 360.98 1482.21 368.78 1477.96 374.92 C 1476.14 378.00 1472.46 379.15 1469.07 379.04 C 1412.38 379.02 1355.69 379.03 1299.00 379.03 C 1291.97 379.16 1284.94 378.77 1277.93 379.16 C 1276.77 392.85 1278.46 406.85 1283.11 419.79 C 1288.13 434.85 1301.61 444.60 1314.61 452.50 C 1323.59 458.34 1334.70 458.04 1344.96 459.05 C 1376.38 459.95 1407.68 456.64 1438.99 454.51 C 1445.87 454.09 1452.88 453.08 1459.73 454.28 C 1465.85 456.40 1469.30 462.83 1470.25 468.93 C 1471.77 478.72 1472.92 488.90 1470.77 498.68 C 1469.60 504.51 1464.18 508.16 1458.92 510.01 C 1449.94 513.19 1440.67 515.80 1431.13 516.50 C 1417.47 518.16 1403.72 518.66 1389.99 519.36 C 1384.33 519.24 1378.68 519.47 1373.04 519.96 C 1359.37 520.25 1345.68 520.20 1332.00 520.18 C 1324.28 520.09 1316.49 520.25 1308.86 518.95 C 1289.46 514.68 1271.67 504.94 1255.85 493.13 C 1243.14 483.29 1231.21 471.93 1222.89 458.06 C 1212.10 439.41 1208.52 417.76 1205.57 396.73 C 1204.42 384.83 1203.03 372.93 1203.04 360.96 C 1202.08 353.34 1202.35 345.66 1202.35 338.00 C 1201.79 316.46 1204.75 294.79 1211.35 274.25 C 1216.90 257.73 1225.19 241.95 1236.97 228.98 C 1251.10 212.64 1270.51 201.61 1290.91 195.03 M 1307.10 259.11 C 1292.34 270.05 1284.36 287.72 1280.48 305.24 C 1279.12 312.77 1277.44 320.39 1277.88 328.09 C 1296.57 328.66 1315.30 328.16 1334.00 328.33 C 1358.02 328.15 1382.07 328.68 1406.08 328.08 C 1406.68 322.05 1405.95 315.98 1405.23 309.99 C 1403.72 297.82 1400.25 285.72 1393.83 275.18 C 1386.50 262.92 1374.22 253.77 1360.28 250.55 C 1342.44 246.42 1322.19 247.93 1307.10 259.11 Z" />
<path fill="#858688" opacity="1.00" d=" M 895.55 192.52 C 897.85 189.78 901.73 190.00 904.98 189.93 C 920.65 190.08 936.32 189.84 951.99 190.04 C 956.08 189.94 960.42 192.35 961.43 196.52 C 962.39 202.84 961.86 209.39 963.26 215.64 C 963.50 215.95 963.99 216.58 964.23 216.89 C 968.43 216.17 971.97 213.62 975.71 211.76 C 993.76 203.20 1012.08 194.42 1031.95 191.12 C 1044.24 189.55 1056.66 189.55 1069.02 190.04 C 1086.66 191.45 1105.14 193.89 1120.29 203.78 C 1127.21 208.06 1132.02 214.76 1137.03 221.01 C 1151.96 239.85 1157.96 264.33 1158.39 288.01 C 1158.27 360.35 1158.35 432.69 1158.36 505.04 C 1158.72 510.78 1154.10 515.66 1148.64 516.67 C 1138.57 518.80 1128.20 517.49 1118.00 517.85 C 1110.69 517.51 1103.22 518.68 1096.04 516.99 C 1089.12 515.32 1086.51 507.66 1085.67 501.39 C 1084.79 491.96 1085.75 482.46 1085.20 473.01 C 1084.23 463.03 1084.83 453.00 1084.67 443.00 C 1084.66 393.67 1084.60 344.34 1084.65 295.01 C 1084.89 283.33 1083.16 270.77 1075.80 261.29 C 1072.38 256.66 1066.87 254.23 1061.54 252.57 C 1052.89 250.32 1043.95 248.99 1035.00 249.32 C 1012.87 248.73 990.33 253.67 971.31 265.24 C 968.30 267.31 964.17 269.63 964.82 273.94 C 964.88 351.31 964.80 428.68 964.86 506.06 C 965.21 512.59 959.70 518.37 953.51 519.59 C 937.77 521.82 921.85 520.55 906.04 520.06 C 899.94 519.61 894.72 515.03 892.55 509.46 C 890.53 504.56 891.23 499.16 891.15 494.00 C 891.15 398.65 891.18 303.30 891.14 207.95 C 891.37 202.63 891.87 196.70 895.55 192.52 Z" />
<path fill="#006cb5" opacity="1.00" d=" M 495.80 269.21 C 504.49 266.19 513.83 265.11 523.00 264.83 C 530.73 264.60 538.47 264.65 546.21 264.71 C 548.40 264.78 550.58 265.05 552.75 265.40 C 556.21 266.05 559.70 266.55 563.21 266.92 C 582.20 270.06 600.46 277.20 616.99 286.99 C 621.87 290.01 626.91 292.92 631.05 296.94 C 624.34 294.05 617.59 291.16 610.46 289.48 C 583.84 282.83 553.67 290.73 534.53 310.61 L 533.86 310.55 C 525.97 302.90 516.75 296.31 506.25 292.81 C 497.43 289.97 488.37 287.17 478.99 287.53 C 468.10 287.08 457.18 288.95 447.13 293.21 C 445.96 293.00 444.79 292.79 443.63 292.56 C 447.23 288.98 451.92 286.83 456.24 284.28 C 464.58 279.94 473.05 275.35 482.23 273.16 C 483.26 273.22 484.15 272.89 484.90 272.17 C 487.14 270.86 489.77 270.35 492.33 270.15 C 493.56 270.19 494.74 269.82 495.80 269.21 Z" />
<path fill="#00aff0" opacity="1.00" d=" M 534.53 310.61 C 553.67 290.73 583.84 282.83 610.46 289.48 C 617.59 291.16 624.34 294.05 631.05 296.94 C 637.17 300.58 642.24 305.74 647.48 310.53 C 671.49 334.59 695.71 358.46 719.65 382.60 C 714.08 388.89 706.99 393.59 699.66 397.56 C 682.10 405.76 661.67 408.82 642.83 403.42 C 635.44 401.65 628.65 398.21 621.76 395.13 C 620.03 394.32 618.48 393.20 617.02 391.99 C 604.83 381.90 594.21 370.12 582.91 359.08 C 566.78 342.93 550.41 326.99 534.53 310.61 Z" />
<path fill="#ea5044" opacity="1.00" d=" M 447.13 293.21 C 457.18 288.95 468.10 287.08 478.99 287.53 C 488.37 287.17 497.43 289.97 506.25 292.81 C 516.75 296.31 525.97 302.90 533.86 310.55 C 522.04 321.84 511.15 334.04 499.43 345.43 C 490.88 353.88 482.50 362.50 473.91 370.91 C 465.83 378.74 454.36 382.81 443.15 381.91 C 424.89 380.64 408.67 365.35 406.51 347.15 C 404.45 335.05 409.33 322.45 417.86 313.87 C 422.01 309.72 426.39 305.80 430.89 302.04 C 436.11 298.76 441.60 295.92 447.13 293.21 Z" />
<path fill="#858688" opacity="1.00" d=" M 442.97 292.51 L 443.63 292.56 C 444.79 292.79 445.96 293.00 447.13 293.21 C 441.60 295.92 436.11 298.76 430.89 302.04 C 434.19 298.08 438.73 295.36 442.97 292.51 Z" />
<path fill="#ffcc2a" opacity="1.00" d=" M 779.87 322.86 C 787.37 315.53 797.67 311.69 808.00 310.85 C 814.51 311.61 821.28 312.52 826.93 316.14 C 836.43 321.16 843.77 330.16 846.65 340.52 C 851.18 354.02 846.88 369.86 836.64 379.65 C 830.70 385.33 824.77 391.15 817.86 395.65 C 810.06 399.35 802.05 402.80 793.55 404.50 C 769.10 409.67 742.50 402.72 723.80 386.14 C 722.58 385.00 721.91 383.46 721.22 381.99 C 741.00 362.52 760.18 342.43 779.87 322.86 Z" />
<path fill="#a9cf46" opacity="1.00" d=" M 719.65 382.60 C 720.04 382.45 720.83 382.15 721.22 381.99 C 721.91 383.46 722.58 385.00 723.80 386.14 C 742.50 402.72 769.10 409.67 793.55 404.50 C 802.05 402.80 810.06 399.35 817.86 395.65 C 815.15 398.79 811.47 400.79 808.08 403.08 C 789.01 415.60 767.22 423.78 744.74 427.51 C 736.50 428.31 728.31 429.84 720.00 429.35 C 712.28 429.84 704.69 428.38 697.04 427.64 C 677.59 424.65 658.58 418.37 641.43 408.66 C 634.48 404.79 627.55 400.62 621.76 395.13 C 628.65 398.21 635.44 401.65 642.83 403.42 C 661.67 408.82 682.10 405.76 699.66 397.56 C 706.99 393.59 714.08 388.89 719.65 382.60 Z" />
</svg>
